<svg width="30" height="31" viewBox="0 0 30 31" fill="none" xmlns="http://www.w3.org/2000/svg">
<path d="M14.3037 28.6074C6.41923 28.6074 0 22.1882 0 14.3037C0 6.41923 6.41923 0 14.3037 0C22.1882 0 28.6074 6.41923 28.6074 14.3037C28.6074 22.1882 22.1882 28.6074 14.3037 28.6074ZM14.3037 2.09323C7.56353 2.09323 2.09323 7.57748 2.09323 14.3037C2.09323 21.03 7.56353 26.5142 14.3037 26.5142C21.0439 26.5142 26.5142 21.03 26.5142 14.3037C26.5142 7.57748 21.0439 2.09323 14.3037 2.09323Z" fill="#292D32"/>
<path d="M28.9571 30.0029C28.692 30.0029 28.4269 29.9052 28.2175 29.6959L25.4266 26.9049C25.0219 26.5002 25.0219 25.8304 25.4266 25.4257C25.8313 25.021 26.5011 25.021 26.9058 25.4257L29.6967 28.2167C30.1014 28.6214 30.1014 29.2912 29.6967 29.6959C29.4874 29.9052 29.2223 30.0029 28.9571 30.0029Z" fill="#292D32"/>
</svg>
